<svg width="996.567" height="1074.307" viewBox="0 0 996.567 1074.307">
			<g id="Cork" data-name="Cork" transform="translate(561.661 334.035)">
				<path id="Path_1" data-name="Path 1" d="M-36.783-3.471H-49.724L-53.6.408l-4.878,4.878V14.1l8.026,8.032v9.079L-65.745,46.5H-77.378L-90.524,59.647h18.978l-9.947,9.941h-9.247l-6,6.006,4.27,4.276h38.216l6.043-6.043h21.358V67.295h5.745l3.607,3.452h2V62.361H-7.4L2.71,52.253H15.676l9.953-13.38L14.1,27.338V18.444H5.827V12.562L9.85,8.534,1.576.253H-3.072l-3.961,3.96H-17.762L-31.118-9.13Z" transform="translate(96.74 9.13)" fill="#1cda9a"></path>
			</g>
			<g id="Limerick" data-name="Limerick" transform="translate(599.747 304.775)">
				<path id="Path_2" data-name="Path 2" d="M-40.437-20.228v3.254h-11.33l-3.96,3.96h-8.739L-78.813-27.368-85.476-20.7H-98.417l-3.737,3.731-4.2-4.2V-37.042l8.547-8.547h29.625l7.611-7.611,5.714,5.714h10.189v12.922H-54.58V-29l8.77,8.77Z" transform="translate(106.35 53.2)" fill="#1cda9a"></path>
			</g>
			<g id="Kerry" data-name="Kerry" transform="translate(523 315.795)">
				<path id="Path_3" data-name="Path 3" d="M-40.087,0V5.838H-52.88L-63.757,16.715V34.279H-74.311V26.551h-2.516v5.429h-7.351V27.537h-8.156l-13.1,13.1,4.221,4.221h30.791v6.359H-82.963L-93.351,61.6v4.9h-6.917l18.556,18.556,10.487-10.48,9.842,9.848L-48.4,71.454h11.633L-22.9,57.584V50.493l-8.026-8.026V31.658l4.728-4.736-4.9-4.909V4.14L-26.966,0Z" transform="translate(105.43)" fill="#1cda9a"></path>
			</g>
			<g id="Clare" data-name="Clare" transform="translate(563.44 262.364)">
				<path id="Path_4" data-name="Path 4" d="M-53.748-9.939-60.479-3.2V14.065l-7.4,7.4H-97.5l-3.409,3.409h-17.4l-4.772-4.778L-133.7,30.712h-7.66V26.994L-125.8,11.431h4.933L-106.838-2.6v-7.871h-9.383l15.594-15.6,8.008-.068,9.433,9.433v7.258h6.433l4.884-4.878h8.243l4.394,4.388Z" transform="translate(141.36 26.14)" fill="#1cda9a"></path>
			</g>
			<g id="Laois" data-name="Laois" transform="translate(693.073 259.352)">
				<path id="Path_5" data-name="Path 5" d="M-29.418-15.658V-8.48h-8.95l-7.245-7.251L-58.182-3.157h-8.95l-7.456-7.455V-17l-2.783-2.789,6.675-6.669v-4.227l-3.359-3.353V-37h9.061l4.184-4.184h5.4v5.02h12.588l6.663,6.663v7.1Z" transform="translate(77.37 41.18)" fill="#1cda9a"></path>
			</g>
			<g id="Offaly" data-name="Offaly" transform="translate(674.87 239.004)">
				<path id="Path_6" data-name="Path 6" d="M-36.8-4.738-40.039-1.5v8l-3.991,3.991H-54.2V5.47h-8.813L-67.2,9.654h-10.48v6.384l3.359,3.346V21.6l-5.968,5.968-.837-.837h-5.609v6.39l-5.541,5.541L-96.78,34.16l4.419-4.537V13.354L-96.228,9.48-91.444,4.7-96.6-.461l6.78-6.787h10.5l5.212-5.212h1.742v7.065H-57.8l6.21-6.2h7.939Z" transform="translate(96.78 12.46)" fill="#1cda9a"></path>
			</g>
			<g id="Tipperary" data-name="Tipperary" transform="translate(646.738 262.153)">
				<path id="Path_8-2" data-name="Path 8" d="M-15.5,2.475V-17.2l-6.458-6.458-.886-.886-1.2-1.2-.006-1.01v-7.246l-1.283-1.276v-6.4l-3.9-3.905h-2.2v4.971L-39.4-32.642l-7.9-7.9,5.4-5.54V-60.376l-3.663-3.664h-2.318L-72.04-39.893v16.269l5.5,5.5h11.608V-.364h-9.916V1.787l7.351,7.35H-50.7v8.088h-4.686l7.6,7.605H-29.92V12.249H-7.137V10.836Z" transform="translate(72.04 64.04)" fill="#1cda9a"></path>
			</g>
			<g id="Waterford" data-name="Waterford" transform="translate(666.646 340.859)">
				<path id="Path_9-2" data-name="Path 9" d="M-43.634-4.989V9.626H-75.441v8.051l-6.136,6.13H-96.018v2.182l-10.468-10.461V5.213h-8.274V2.746l3.285-3.285H-90.13V-13.12H-68.3l8.131,8.131Z" transform="translate(114.76 13.12)" fill="#1cda9a"></path>
			</g>
			<g id="Wexford" data-name="Wexford" transform="translate(738.069 298.237)">
				<path id="Path_10-2" data-name="Path 10" d="M-32.155-1.855V.215l-1.041,1.2-6.235,6.012v19.5l-6.656,6.656V54.693H-58.31l-4.32-4.32h-9.136L-81.874,60.488h-.576V43.457h-2.12V35.777l6.5-6.5v-7.6L-61.341,4.956h5.312l6.111-6.1V-4.88h8.547l3.031,3.025Z" transform="translate(84.57 4.88)" fill="#1cda9a"></path>
			</g>
			<g id="Kilkenny" data-name="Kilkenny" transform="translate(697.139 288.221)">
				<path id="Path_11-2" data-name="Path 11" d="M-25.623-17.4V.662l-3.254,3.254v8.677H-42.3l-8.131-8.131h-.043v-2.4L-58.837-6.31V-25.983l-8.553-8.552v-4.822l5.175,5.169h10.939L-39.7-45.76l6.247,6.247h.056l-3.613,3.62v7.109Z" transform="translate(67.39 45.76)" fill="#1cda9a"></path>
			</g>
			<g id="Carlow" data-name="Carlow" transform="translate(729.938 286.672)">
				<path id="Path_12-2" data-name="Path 12" d="M-15.437-5.475V1.181l4.3,4.3L-28.384,22.718v7.605l-.831.824V14.513L-40.6,3.127V-1.986L-35.983-6.6H-27.1V-9.969h3.359L-19.3-14.4h8.584l2.8,2.795v4.066h-5.448Z" transform="translate(40.6 14.4)" fill="#1cda9a"></path>
			</g>
			<g id="Wicklow" data-name="Wicklow" transform="translate(751.946 254.368)">
				<path id="Path_13" data-name="Path 13" d="M-28.9-10.574V3.036l-8.572,8.571v5.057h-5.194L-45.69,13.64H-57.652v5.151l-4.686,4.685h-3.7l-4.4-4.4V14.415l.645-.645h6.867V6.29l-4.214-4.215H-76.01V-8.672L-59.952-24.73h11.193l3.08-3.081h8.733v9.192Z" transform="translate(76.01 27.811)" fill="#1cda9a"></path>
			</g>
			<g id="Dublin" data-name="Dublin" transform="translate(764.311 216.259)">
				<path id="Path_14" data-name="Path 14" d="M-13.456-17.118l4.766,4.76v3.031H-18.42l-3.08,3.08H-32.694l-.638.632L-35.39-7.672V-20.384l10.666-10.66-5.69-5.683L-28.25-38.9h3.632l6.13-6.123h3.805l6.5,6.563-5.268,5.268Z" transform="translate(35.39 45.02)" fill="#1cda9a"></path>
			</g>
			<g id="Kildare" data-name="Kildare" transform="translate(729.826 236.141)">
				<path id="Path_15" data-name="Path 15" d="M-21.368-13.026-36.5,2.109V14.566l-3.719,3.719h-2.368V13.475l-6.743-6.743V-.358L-56.2-7.238l4.2-4.208v-7.989l4.239-4.239-5.528-5.535,5.051-5.051,6.588,6.588,5.615-5.621h11.156l1.766,1.766L-24.133-30.5v14.7Z" transform="translate(56.2 34.26)" fill="#1cda9a"></path>
			</g>
			<g id="Meath" data-name="Meath" transform="translate(717.257 191.566)">
				<path id="Path_16" data-name="Path 16" d="M-40.889-13.665h-3.694l-6.123,6.123h-3.644l-4.574,4.586,5.677,5.683L-60.17,9.651l-2.473-2.467h-13.17l-4.6,4.611-6.588-6.588-6.762,6.768L-99.13,6.614l8.894-8.9V-18.375h-11.894l-5.411-5.411h23.291v-9.433h4.419L-77.1-35.94h1.289l.57.545.043-.043,15.742,15.73H-40.92Z" transform="translate(107.54 35.94)" fill="#1cda9a"></path>
			</g>
			<g id="Louth" data-name="Louth" transform="translate(751.314 175.136)">
				<path id="Path_17" data-name="Path 17" d="M-14.2-3.369V6.349l9.383,9.39.025,5.646H-22.317L-37.34,6.362-26.767-4.224V-8.86H-2.6L2.722-3.542v.174Z" transform="translate(37.34 8.86)" fill="#1cda9a"></path>
			</g>
			<g id="Monaghan" data-name="Monaghan" transform="translate(718.999 139.989)">
				<path id="Path_18" data-name="Path 18" d="M-24.828-20.551v5.287l-9.935,9.935L-50.345-20.91H-62.251L-65.3-23.966l4.71-4.717v-5.479l5.882-5.888-5.373-5.386,6.2-6.2V-54.05h3.861l9.309,9.309v8.311Z" transform="translate(65.3 54.05)" fill="#1cda9a"></path>
			</g>
			<g id="Cavan" data-name="Cavan" transform="translate(675.626 152.991)">
				<path id="Path_19" data-name="Path 19" d="M-43.554-22.224-46.2-19.571h-5.845v9.433h-23.3L-88.476-23.271V-31l-8.032-8.039h-8.138l-9.9-9.9v-2.1l7.413-7.406,18.37,18.364h15.451l4.184,4.19H-57.22Z" transform="translate(114.55 58.45)" fill="#1cda9a"></path>
			</g>
			<g id="Westmeath" data-name="Westmeath" transform="translate(677.746 203.943)">
				<path id="Path_20" data-name="Path 20" d="M-33.372-12.441l-9.9,9.9L-39.942.785h-6.514l-6.21,6.2h-11.15V-.076h-5.15l-5.219,5.212h-7.078l.031-.031L-87.77-1.427v-.967h5.5v-7.915h13.189l7.27-7.27V-25.1l4.016-4.022h6.34v-3.6l7.611,7.6h10.474Z" transform="translate(87.77 32.72)" fill="#1cda9a"></path>
			</g>
			<g id="Longford" data-name="Longford" transform="translate(674.344 189.137)">
				<path id="Path_21" data-name="Path 21" d="M-22.882-7.6V-3.99H-27.8l-5.442,5.442V8.97l-5.851,5.851H-53.7v7.915h-3.08V12.98l-3.4-3.409L-47.9-2.719v-7.456h2.578l10.053-9.8Z" transform="translate(60.18 19.98)" fill="#1cda9a"></path>
			</g>
			<g id="Roscommon" data-name="Roscommon" transform="translate(635.322 172.422)">
				<path id="Path_22" data-name="Path 22" d="M-29.988-20.235-43.276-6.954l4.413,4.407V10.586l5.535,5.541-7.332,7.332H-45.4l-6.588-6.588V-4.784l-10.995-11H-78.87V-30.133h4.822V-38.81h1.587l4.3,4.3h8.286v-6.768L-46.858-53.22h4.283v13.964l12.588,12.588Z" transform="translate(78.87 53.22)" fill="#1cda9a"></path>
			</g>
			<g id="Galway" data-name="Galway" transform="translate(549.384 212.273)">
				<path id="Path_23" data-name="Path 23" d="M-78.158-26.923l-3.576,3.576H-85.05L-101.468-6.936h-6.911l-4.394-4.388h-10.239L-127.9-6.446h-3.018v-5.838l-8.441-8.448h5.064V-30.45h-37.484v-6.9h-9.1l-9.861-9.867H-205.56V-58.086l5.944-5.95h32.29l9.842,9.842h13.468l16.61-16.616h22.678l9.576,9.576v21.661l8.008,8.008h4.351Z" transform="translate(205.56 70.81)" fill="#1cda9a"></path>
			</g>
			<g id="Mayo" data-name="Mayo" transform="translate(553.573 150.122)">
				<path id="Path_24" data-name="Path 24" d="M-53.444-18.243v4.555h-2.963v8.677h-4.822V11.754h-6.359L-84.2,28.371H-95.676l-9.842-9.842h-21.234V4.174h17.267V-5.4h-22.659l-8.417-8.417V-19.5h10.852v-8.826h-6.415V-47.98h46.074l9.514,9.52.657-.657v.682l8.212,9.1-2.56,2.566v6.266l10.276,10.282,8.014-8.02Z" transform="translate(140.56 47.98)" fill="#1cda9a"></path>
			</g>
			<g id="Sligo" data-name="Sligo" transform="translate(616.673 135.693)">
				<path id="Path_25" data-name="Path 25" d="M-29.7-21.783l-13.189,12.1v5.417h-4.871l-3.923-3.923v-7.351h-5.906l-7.016,7.01-7.859-7.853v-4.27l3.483-3.477L-78.12-34.24v-2.182l6.44-6.439h2.12L-65-38.3h15.5l-6.632-6.632L-43.778-57.29h4.413v9.879L-43.976-42.8l5.423,5.417v6.743Z" transform="translate(78.12 57.29)" fill="#1cda9a"></path>
			</g>
			<g id="Leitrim" data-name="Leitrim" transform="translate(654.244 135.694)">
				<path id="Path_26" data-name="Path 26" d="M-27.631-28.06v4.314l-.012-.006L-38.694-12.969h-3.049L-52.88-24.1V-39.489H-59.6l-8.658-8.658V-54.9L-72.67-59.31l3.6-3.613V-73.8h7.9l15.581,15.587L-53.7-50.093V-46l11.323,11.323h8.138Z" transform="translate(72.67 73.8)" fill="#1cda9a"></path>
			</g>
			<g id="NorthernIreland" data-name="NorthernIreland" transform="translate(668.524 62.702)">
				<path id="Path_27" data-name="Path 27" d="M-96.835-37.383V-14.21l-9.154,9.154h-14.032V6.5l-10.66,10.654-5.466-5.46h-24.946l-.223-.223v-.942h-.942L-177.2-4.411v-8.311l-10.728-10.728H-195.2v3.83l-7.214,7.2,5.386,5.386-4.884,4.89V3.336l-4.58,4.58H-220.8L-254.68-25.967l4.6-4.611h14.441l6.663-6.663V-43.86h-10.58v-4.9h14.639L-210.167-63.5v-8.788l23.886-23.886,2.553-2.144h51.38l-.006,19.5L-111.8-58.251l-15.29,15.29,7.289,7.289,7.406-7.413h9.854Z" transform="translate(254.68 98.32)" fill="#1ec185"></path>
			</g>
			<g id="Donegal" data-name="Donegal" transform="translate(635.824 47.66)">
				<path id="Path_28" data-name="Path 28" d="M-62.223-8.437l-1.965,1.661L-88.855,17.885v8.788l-13.319,13.319h-16.065v9.737h10.58v3.21l-5.237,5.237H-127.35l-6.1,6.1V54.8h-22.157l-8.045-8.045,18.116-18.116V12.115L-132.68-.739h13.04v-5.64l3.731-3.731h27.834V-22.19h12.092Z" transform="translate(163.65 22.19)" fill="#1cda9a"></path>
			</g>
</svg>
